<svg width="24" height="24" viewBox="0 0 24 24" fill="none" xmlns="http://www.w3.org/2000/svg">
<g id="bi:arrow-left">
<g id="Group">
<path id="Vector" fill-rule="evenodd" clip-rule="evenodd" d="M22.5 12C22.5 11.8011 22.421 11.6104 22.2803 11.4697C22.1397 11.3291 21.9489 11.25 21.75 11.25H4.0605L8.781 6.53103C8.85073 6.4613 8.90604 6.37852 8.94378 6.28741C8.98152 6.1963 9.00094 6.09865 9.00094 6.00003C9.00094 5.90142 8.98152 5.80377 8.94378 5.71266C8.90604 5.62155 8.85073 5.53876 8.781 5.46903C8.71127 5.3993 8.62848 5.34399 8.53737 5.30625C8.44626 5.26851 8.34861 5.24908 8.25 5.24908C8.15138 5.24908 8.05373 5.26851 7.96262 5.30625C7.87151 5.34399 7.78873 5.3993 7.719 5.46903L1.719 11.469C1.64915 11.5387 1.59374 11.6215 1.55593 11.7126C1.51812 11.8037 1.49866 11.9014 1.49866 12C1.49866 12.0987 1.51812 12.1964 1.55593 12.2875C1.59374 12.3786 1.64915 12.4614 1.719 12.531L7.719 18.531C7.78873 18.6008 7.87151 18.6561 7.96262 18.6938C8.05373 18.7316 8.15138 18.751 8.25 18.751C8.34861 18.751 8.44626 18.7316 8.53737 18.6938C8.62848 18.6561 8.71127 18.6008 8.781 18.531C8.85073 18.4613 8.90604 18.3785 8.94378 18.2874C8.98152 18.1963 9.00094 18.0987 9.00094 18C9.00094 17.9014 8.98152 17.8038 8.94378 17.7127C8.90604 17.6216 8.85073 17.5388 8.781 17.469L4.0605 12.75H21.75C21.9489 12.75 22.1397 12.671 22.2803 12.5304C22.421 12.3897 22.5 12.1989 22.5 12Z" fill="white"/>
</g>
</g>
</svg>
